<svg id="Layer_1" data-name="Layer 1" xmlns="http://www.w3.org/2000/svg" viewBox="0 0 276.13 203.35"><title>da-large</title><path d="M37.58,152.51c0-25.7,19.06-67.41,46.69-67.41,8.84,0,13.54,6.36,13.54,17.68a36.16,36.16,0,0,1-1.94,12.16L83.44,147.26c-6.08,11.6-18.23,26.25-32.6,26.25-8.84,0-13.26-7.18-13.26-21m30.67,47.25h38.4c1.94-13.54,5.53-24.31,10.78-37.85L179.31,0H140.08L116.87,60,111.62,74.6H110C105.82,63,96.43,56.91,84.54,56.91,36.75,56.91,0,113.28,0,157.21c0,25.14,9.95,46.14,34.26,46.14,16.85,0,30.39-12.43,37.85-20.44h1.66Z"/><path d="M237.45,160.8c-5.8,8-14.92,16.3-29.29,16.3-13.54,0-20.72-8.29-20.72-18.51,0-11.33,8-19.89,23.48-20.72a105.52,105.52,0,0,1,26.52,2.76V160.8ZM276.13,200c-0.83-5.8-.83-14.64-0.83-20.45V113.42c0-35.92-28.46-56-60.78-56-37,0-59.68,19.61-64.1,44.76H193c-1.38-12.16,5.53-20.72,20.72-20.72s23.21,9.39,24,28.18V121a150.18,150.18,0,0,0-37.3-4.42c-28.73.83-52.22,16.58-52.22,43.93,0,26.8,17.4,42.83,45,42.83,16.86,0,30.39-7.18,42.27-19.34h2.21a87.13,87.13,0,0,1-1.11,16h39.51Z"/></svg>